<?xml version="1.0" standalone="no"?>
<!-- Generator: Adobe Fireworks CS6, Export SVG Extension by Aaron Beall (http://fireworks.abeall.com) . Version: 0.6.1  -->
<!DOCTYPE svg PUBLIC "-//W3C//DTD SVG 1.1//EN" "http://www.w3.org/Graphics/SVG/1.1/DTD/svg11.dtd">

<svg id="Untitled-Page%201" viewBox="0 0 128 100" style="background-color:#ffffff00" version="1.1"
	xmlns="http://www.w3.org/2000/svg" xmlns:xlink="http://www.w3.org/1999/xlink" xml:space="preserve"
	x="0px" y="0px" width="128px" height="100px"
>
	<path d="M 58.5933 0 L 21.0652 29.5699 C 20.4202 30.1075 19.1365 30.6451 18.2764 30.6451 L 0 30.6451 L 0 69.3548 L 18.2764 69.3548 C 19.1365 69.3548 20.4202 69.785 21.0652 70.4301 L 58.5933 100 L 58.5933 0 L 58.5933 0 Z" />
	<path d="M 73.8984 33.3464 L 68.4388 38.9905 C 71.325 41.7998 73.0396 45.6506 73.0396 50.0029 C 73.0396 54.3543 71.3261 58.206 68.4388 61.0153 L 73.8984 66.6595 C 78.2745 62.4014 80.891 56.449 80.891 50.0029 C 80.891 43.5569 78.2745 37.6055 73.8984 33.3464 ZM 90.6443 16.6889 L 85.0933 22.2417 C 92.2391 29.3886 96.5947 39.1848 96.5947 50.0019 C 96.5947 60.819 92.2068 70.7054 85.0933 77.7318 L 90.6139 83.315 C 99.2032 74.8321 104.4459 62.9392 104.4459 50.0019 C 104.4459 37.0647 99.2013 25.2474 90.6443 16.6889 ZM 107.3284 0 L 101.7776 5.5538 C 113.1414 16.9195 120.1487 32.6053 120.1487 50.0009 C 120.1487 67.3966 113.1424 83.0824 101.7776 94.4481 L 107.3284 100 C 120.1074 87.2187 128 69.5129 128 50 C 128 30.488 120.1074 12.7812 107.3284 0 Z" />
	<path d="M 81.8088 29 L 76.5588 34.25 L 92.3245 50 L 76.5588 65.75 L 81.8088 71 L 97.5588 55.2343 L 113.3088 71 L 118.5588 65.75 L 102.7932 50 L 118.5588 34.25 L 113.3088 29 L 97.5588 44.7656 L 81.8088 29 Z" />
</svg>
