<?xml version="1.0" standalone="no"?><!-- Generator: Adobe Fireworks CS6, Export SVG Extension by Aaron Beall (http://fireworks.abeall.com) . Version: 0.6.1  --><!DOCTYPE svg PUBLIC "-//W3C//DTD SVG 1.1//EN" "http://www.w3.org/Graphics/SVG/1.1/DTD/svg11.dtd"><svg id="Untitled-Page%201" viewBox="0 0 128 100" style="background-color:#ffffff00" version="1.1"	xmlns="http://www.w3.org/2000/svg" xmlns:xlink="http://www.w3.org/1999/xlink" xml:space="preserve"	x="0px" y="0px" width="128px" height="100px">	<path d="M 59.0579 4 L 24.7549 31.0108 C 24.1653 31.5054 22.992 32 22.2058 32 L 5 32 L 5 68 L 22.7058 68 C 23.492 68 24.1074 68.3958 24.697 68.9893 L 59 96 L 59 4 L 59.0579 4 L 59.0579 4 Z" fill="#000000"/>	<path d="M 103.6049 4 L 98.5311 9.1095 C 108.9183 19.5659 115.3234 33.9969 115.3234 50.0008 C 115.3234 66.0049 108.9192 80.4358 98.5311 90.8923 L 103.6049 96 C 115.2857 84.2412 122.5 67.9519 122.5 50 C 122.5 32.049 115.2857 15.7587 103.6049 4 L 103.6049 4 ZM 88.3546 19.3538 L 83.2806 24.4624 C 89.8123 31.0375 93.7936 40.05 93.7936 50.0017 C 93.7936 59.9535 89.7828 69.049 83.2806 75.5133 L 88.3268 80.6498 C 96.1779 72.8455 100.9701 61.9041 100.9701 50.0017 C 100.9701 38.0995 96.1762 27.2276 88.3546 19.3538 L 88.3546 19.3538 ZM 73.0478 34.6787 L 68.0573 39.8713 C 70.6955 42.4558 72.2628 45.9986 72.2628 50.0027 C 72.2628 54.006 70.6965 57.5495 68.0573 60.1341 L 73.0478 65.3267 C 77.0478 61.4093 79.4394 55.9331 79.4394 50.0027 C 79.4394 44.0723 77.0478 38.5971 73.0478 34.6787 L 73.0478 34.6787 Z" fill="#000000"/>	<path d="M 80.2784 30.68 L 75.4795 35.51 L 89.8904 50 L 75.4795 64.49 L 80.2784 69.32 L 94.6748 54.8156 L 109.0713 69.32 L 113.8702 64.49 L 99.4594 50 L 113.8702 35.51 L 109.0713 30.68 L 94.6748 45.1843 L 80.2784 30.68 L 80.2784 30.68 Z" fill="#000000"/></svg>