<?xml version="1.0" standalone="no"?><!-- Generator: Adobe Fireworks CS6, Export SVG Extension by Aaron Beall (http://fireworks.abeall.com) . Version: 0.6.1  --><!DOCTYPE svg PUBLIC "-//W3C//DTD SVG 1.1//EN" "http://www.w3.org/Graphics/SVG/1.1/DTD/svg11.dtd"><svg id="Untitled-Page%201" viewBox="0 0 100 98" style="background-color:#ffffff00" version="1.1"	xmlns="http://www.w3.org/2000/svg" xmlns:xlink="http://www.w3.org/1999/xlink" xml:space="preserve"	x="0px" y="0px" width="100px" height="98px">	<path d="M 80.5853 28.5894 C 92.1413 28.7361 95.1173 39.3568 98.9699 47.4496 L 99.2972 46.6338 L 100 37.3485 C 100 26.8918 101.0497 26.3803 96.2448 17.601 C 86.0932 -0.9475 55.035 12.085 44.5508 11.5412 L 43.4248 10.8769 C 42.849 8.1809 43.8083 3.9256 42.4395 1.7231 L 39.6166 0 C 37.6747 -2.5124 38.5731 3.5399 36.5698 3.1579 C 30.7027 2.0392 35.6197 8.0668 37.8356 12.3109 C 27.7698 14.1916 13.8517 16.1908 8.2018 26.2371 C -25.6157 86.3686 62.0249 130.4416 83.7106 66.7171 C 87.4901 55.6109 88.1953 38.1569 80.5853 28.5894 ZM 47.3277 15.1535 L 44.7298 13.202 L 44.9831 12.8592 C 51.2614 12.7468 61.5224 19.5873 67.1306 22.6943 C 97.8883 39.7349 85.2844 95.7548 49.0938 95.8233 C 1.917 95.9126 -18.3747 37.5944 25.5404 16.2002 C 31.9934 13.0564 39.9553 16.5122 47.0635 15.5133 L 47.3277 15.1535 ZM 49.8044 12.5122 C 70.9387 -4.468 104.5814 14.948 98.5801 42.9211 C 93.8271 27.3394 64.3903 20.5542 49.8044 12.5122 ZM 36.0727 4.4874 C 37.5995 3.7721 41.7983 0.1654 42.0859 4.1218 C 41.3395 7.1723 42.13 11.0488 43.2397 13.901 L 42.9329 14.8002 L 39.5488 14.8157 C 38.6342 14.2209 36.529 5.9431 36.0727 4.4874 ZM 95.5726 28.8799 L 95.8134 28.6702 C 89.3392 18.2165 71.5091 11.9256 59.7508 10.0994 C 58.8349 9.9572 58.3347 10.4782 59.3979 10.8439 C 70.5492 14.6799 86.7344 21.0796 95.5726 28.8799 ZM 45.6541 91.814 L 45.2679 91.2604 L 36.5102 88.5297 C 33.9445 87.9088 30.9076 88.0872 28.4311 87.1858 C 13.9952 81.9314 9.9964 67.1827 5.964 54.3084 C 6.4657 53.8987 4.8675 55.3545 4.9908 55.9904 C 6.0993 61.7043 7.8109 65.8631 10.4589 71 C 17.6916 85.0311 30.011 91.4746 45.6541 91.814 ZM 56.3516 20.399 L 56.6678 20.7931 L 61.0364 23.3501 C 62.7653 24.709 66.5585 27.805 67.7901 29.5355 C 71.1351 34.2353 73.2821 42.4162 74.2372 48.0773 C 75.3983 54.9597 75.1967 61.6094 74.7439 68.5283 C 74.4844 72.4928 73.1521 76.1942 72.301 80.0309 C 72.162 80.6578 72.4098 80.4581 72.6948 80.0448 C 83.8281 63.8984 78.9935 25.5997 56.3516 20.399 Z" />
</svg>
