<?xml version="1.0" standalone="no"?><!-- Generator: Adobe Fireworks CS6, Export SVG Extension by Aaron Beall (http://fireworks.abeall.com) . Version: 0.6.1  --><!DOCTYPE svg PUBLIC "-//W3C//DTD SVG 1.1//EN" "http://www.w3.org/Graphics/SVG/1.1/DTD/svg11.dtd"><svg id="Untitled-Page%201" viewBox="0 0 100 100" style="background-color:#ffffff00" version="1.1"	xmlns="http://www.w3.org/2000/svg" xmlns:xlink="http://www.w3.org/1999/xlink" xml:space="preserve"	x="0px" y="0px" width="100px" height="100px">	<path d="M 5 50 C 5 25.1469 25.1469 5 50 5 C 74.8531 5 95 25.1469 95 50 C 95 74.8531 74.8531 95 50 95 C 25.1469 95 5 74.8531 5 50 ZM 0 50 C 0 77.6146 22.3854 100 50 100 C 77.6146 100 100 77.6146 100 50 C 100 22.3854 77.6146 0 50 0 C 22.3854 0 0 22.3854 0 50 ZM 38 19 L 38 82 L 73.6667 50.5 L 38 19 Z" />
</svg>
