<?xml version="1.0" standalone="no"?><!-- Generator: Adobe Fireworks CS6, Export SVG Extension by Aaron Beall (http://fireworks.abeall.com) . Version: 0.6.1  --><!DOCTYPE svg PUBLIC "-//W3C//DTD SVG 1.1//EN" "http://www.w3.org/Graphics/SVG/1.1/DTD/svg11.dtd"><svg id="Untitled-Page%201" viewBox="0 0 92 100" style="background-color:#ffffff00" version="1.1"	xmlns="http://www.w3.org/2000/svg" xmlns:xlink="http://www.w3.org/1999/xlink" xml:space="preserve"	x="0px" y="0px" width="92px" height="100px">	<path d="M 46 90 C 65.8825 90 82 73.8825 82 54 C 82 34.1175 65.8825 18 46 18 L 46 54 L 10 54 C 10 73.8825 26.1175 90 46 90 Z" fill="#000000"/>	<path d="M 46 18 L 46 54 L 46.275 54 L 71.595 28.68 C 65.0698 22.0844 56.0111 18 46 18 Z" fill="#000000"/>	<path d="M 5 54 C 5 31.356 23.356 13 46 13 C 68.644 13 87 31.356 87 54 C 87 76.644 68.644 95 46 95 C 23.356 95 5 76.644 5 54 ZM 40.5 0 C 39.6716 0 39 0.6716 39 1.5 L 39 3.5 C 39 4.3284 39.6716 5 40.5 5 L 42 5 L 42 8.17 C 18.4676 10.197 0 29.9422 0 54 C 0 79.4054 20.5946 100 46 100 C 71.4054 100 92 79.4054 92 54 C 92 29.9422 73.5324 10.197 50 8.17 L 50 5 L 51.5 5 C 52.3284 5 53 4.3284 53 3.5 L 53 1.5 C 53 0.6716 52.3284 0 51.5 0 L 40.5 0 Z" fill="#000000"/></svg>